<mxfile host="app.diagrams.net" agent="Mozilla/5.0 (Windows NT 10.0; Win64; x64) AppleWebKit/537.36 (KHTML, like Gecko) Chrome/138.0.0.0 YaBrowser/25.8.0.0 Safari/537.36" version="28.2.5">
  <diagram name="Страница — 1" id="KMkn3vEeaApEWxBpsrgm">
    <mxGraphModel dx="1420" dy="866" grid="1" gridSize="10" guides="1" tooltips="1" connect="1" arrows="1" fold="1" page="1" pageScale="1" pageWidth="1200" pageHeight="1920" math="0" shadow="0">
      <root>
        <mxCell id="0" />
        <mxCell id="1" parent="0" />
        <mxCell id="VZofq3OoSa0wKa7ugaaL-57" style="edgeStyle=orthogonalEdgeStyle;rounded=0;orthogonalLoop=1;jettySize=auto;html=1;" parent="1" source="VZofq3OoSa0wKa7ugaaL-11" target="VZofq3OoSa0wKa7ugaaL-21" edge="1">
          <mxGeometry relative="1" as="geometry" />
        </mxCell>
        <mxCell id="VZofq3OoSa0wKa7ugaaL-58" value="1" style="edgeLabel;html=1;align=center;verticalAlign=middle;resizable=0;points=[];" parent="VZofq3OoSa0wKa7ugaaL-57" vertex="1" connectable="0">
          <mxGeometry x="-0.8439" y="2" relative="1" as="geometry">
            <mxPoint as="offset" />
          </mxGeometry>
        </mxCell>
        <mxCell id="VZofq3OoSa0wKa7ugaaL-59" value="0..*" style="edgeLabel;html=1;align=center;verticalAlign=middle;resizable=0;points=[];" parent="VZofq3OoSa0wKa7ugaaL-57" vertex="1" connectable="0">
          <mxGeometry x="0.8634" y="-2" relative="1" as="geometry">
            <mxPoint as="offset" />
          </mxGeometry>
        </mxCell>
        <mxCell id="VZofq3OoSa0wKa7ugaaL-60" value="имеет" style="edgeLabel;html=1;align=center;verticalAlign=middle;resizable=0;points=[];" parent="VZofq3OoSa0wKa7ugaaL-57" vertex="1" connectable="0">
          <mxGeometry x="-0.244" y="-2" relative="1" as="geometry">
            <mxPoint as="offset" />
          </mxGeometry>
        </mxCell>
        <mxCell id="VZofq3OoSa0wKa7ugaaL-61" style="edgeStyle=orthogonalEdgeStyle;rounded=0;orthogonalLoop=1;jettySize=auto;html=1;" parent="1" source="VZofq3OoSa0wKa7ugaaL-11" target="VZofq3OoSa0wKa7ugaaL-24" edge="1">
          <mxGeometry relative="1" as="geometry" />
        </mxCell>
        <mxCell id="VZofq3OoSa0wKa7ugaaL-62" value="занимается в" style="edgeLabel;html=1;align=center;verticalAlign=middle;resizable=0;points=[];" parent="VZofq3OoSa0wKa7ugaaL-61" vertex="1" connectable="0">
          <mxGeometry x="0.0545" y="-2" relative="1" as="geometry">
            <mxPoint as="offset" />
          </mxGeometry>
        </mxCell>
        <mxCell id="VZofq3OoSa0wKa7ugaaL-63" value="1" style="edgeLabel;html=1;align=center;verticalAlign=middle;resizable=0;points=[];" parent="VZofq3OoSa0wKa7ugaaL-61" vertex="1" connectable="0">
          <mxGeometry x="-0.8163" y="-2" relative="1" as="geometry">
            <mxPoint as="offset" />
          </mxGeometry>
        </mxCell>
        <mxCell id="VZofq3OoSa0wKa7ugaaL-64" value="1..*" style="edgeLabel;html=1;align=center;verticalAlign=middle;resizable=0;points=[];" parent="VZofq3OoSa0wKa7ugaaL-61" vertex="1" connectable="0">
          <mxGeometry x="0.801" relative="1" as="geometry">
            <mxPoint as="offset" />
          </mxGeometry>
        </mxCell>
        <mxCell id="VZofq3OoSa0wKa7ugaaL-11" value="УЧЕНИК" style="swimlane;fontStyle=0;childLayout=stackLayout;horizontal=1;startSize=30;horizontalStack=0;resizeParent=1;resizeParentMax=0;resizeLast=0;collapsible=1;marginBottom=0;whiteSpace=wrap;html=1;miterlimit=5;arcSize=15;linejoin=round;absoluteArcSize=0;strokeColor=default;" parent="1" vertex="1">
          <mxGeometry x="300" y="190" width="170" height="250" as="geometry">
            <mxRectangle x="240" y="260" width="80" height="30" as="alternateBounds" />
          </mxGeometry>
        </mxCell>
        <mxCell id="VZofq3OoSa0wKa7ugaaL-12" value="+ID ученика: bigint&lt;div&gt;&lt;br&gt;&lt;/div&gt;" style="text;strokeColor=none;fillColor=none;align=left;verticalAlign=middle;spacingLeft=4;spacingRight=4;overflow=hidden;points=[[0,0.5],[1,0.5]];portConstraint=eastwest;rotatable=0;whiteSpace=wrap;html=1;" parent="VZofq3OoSa0wKa7ugaaL-11" vertex="1">
          <mxGeometry y="30" width="170" height="30" as="geometry" />
        </mxCell>
        <mxCell id="VZofq3OoSa0wKa7ugaaL-13" value="+Имя: String&lt;div&gt;&lt;br&gt;&lt;/div&gt;" style="text;strokeColor=none;fillColor=none;align=left;verticalAlign=middle;spacingLeft=4;spacingRight=4;overflow=hidden;points=[[0,0.5],[1,0.5]];portConstraint=eastwest;rotatable=0;whiteSpace=wrap;html=1;" parent="VZofq3OoSa0wKa7ugaaL-11" vertex="1">
          <mxGeometry y="60" width="170" height="30" as="geometry" />
        </mxCell>
        <mxCell id="VZofq3OoSa0wKa7ugaaL-14" value="+Возраст: integer" style="text;strokeColor=none;fillColor=none;align=left;verticalAlign=middle;spacingLeft=4;spacingRight=4;overflow=hidden;points=[[0,0.5],[1,0.5]];portConstraint=eastwest;rotatable=0;whiteSpace=wrap;html=1;" parent="VZofq3OoSa0wKa7ugaaL-11" vertex="1">
          <mxGeometry y="90" width="170" height="40" as="geometry" />
        </mxCell>
        <mxCell id="VZofq3OoSa0wKa7ugaaL-15" value="+Номер телефона: String" style="text;strokeColor=none;fillColor=none;align=left;verticalAlign=middle;spacingLeft=4;spacingRight=4;overflow=hidden;points=[[0,0.5],[1,0.5]];portConstraint=eastwest;rotatable=0;whiteSpace=wrap;html=1;" parent="VZofq3OoSa0wKa7ugaaL-11" vertex="1">
          <mxGeometry y="130" width="170" height="30" as="geometry" />
        </mxCell>
        <mxCell id="5TQVmaGm9WwMJkpDohqf-11" value="+Выбрать хореографа(): String" style="text;strokeColor=default;fillColor=none;align=left;verticalAlign=middle;spacingLeft=4;spacingRight=4;overflow=hidden;points=[[0,0.5],[1,0.5]];portConstraint=eastwest;rotatable=0;whiteSpace=wrap;html=1;" vertex="1" parent="VZofq3OoSa0wKa7ugaaL-11">
          <mxGeometry y="160" width="170" height="30" as="geometry" />
        </mxCell>
        <mxCell id="5TQVmaGm9WwMJkpDohqf-17" value="+Записаться в группу(): String" style="text;strokeColor=default;fillColor=none;align=left;verticalAlign=middle;spacingLeft=4;spacingRight=4;overflow=hidden;points=[[0,0.5],[1,0.5]];portConstraint=eastwest;rotatable=0;whiteSpace=wrap;html=1;" vertex="1" parent="VZofq3OoSa0wKa7ugaaL-11">
          <mxGeometry y="190" width="170" height="30" as="geometry" />
        </mxCell>
        <mxCell id="5TQVmaGm9WwMJkpDohqf-12" value="+Посетить занятие(): String" style="text;strokeColor=default;fillColor=none;align=left;verticalAlign=middle;spacingLeft=4;spacingRight=4;overflow=hidden;points=[[0,0.5],[1,0.5]];portConstraint=eastwest;rotatable=0;whiteSpace=wrap;html=1;" vertex="1" parent="VZofq3OoSa0wKa7ugaaL-11">
          <mxGeometry y="220" width="170" height="30" as="geometry" />
        </mxCell>
        <mxCell id="VZofq3OoSa0wKa7ugaaL-51" style="edgeStyle=orthogonalEdgeStyle;rounded=0;orthogonalLoop=1;jettySize=auto;html=1;entryX=0.5;entryY=0;entryDx=0;entryDy=0;" parent="1" source="VZofq3OoSa0wKa7ugaaL-16" target="VZofq3OoSa0wKa7ugaaL-11" edge="1">
          <mxGeometry relative="1" as="geometry" />
        </mxCell>
        <mxCell id="VZofq3OoSa0wKa7ugaaL-52" value="1" style="edgeLabel;html=1;align=center;verticalAlign=middle;resizable=0;points=[];" parent="VZofq3OoSa0wKa7ugaaL-51" vertex="1" connectable="0">
          <mxGeometry x="-0.8338" y="1" relative="1" as="geometry">
            <mxPoint as="offset" />
          </mxGeometry>
        </mxCell>
        <mxCell id="VZofq3OoSa0wKa7ugaaL-53" value="1..*" style="edgeLabel;html=1;align=center;verticalAlign=middle;resizable=0;points=[];" parent="VZofq3OoSa0wKa7ugaaL-51" vertex="1" connectable="0">
          <mxGeometry x="0.8068" y="2" relative="1" as="geometry">
            <mxPoint as="offset" />
          </mxGeometry>
        </mxCell>
        <mxCell id="VZofq3OoSa0wKa7ugaaL-54" style="edgeStyle=orthogonalEdgeStyle;rounded=0;orthogonalLoop=1;jettySize=auto;html=1;entryX=0.5;entryY=0;entryDx=0;entryDy=0;" parent="1" source="VZofq3OoSa0wKa7ugaaL-16" target="VZofq3OoSa0wKa7ugaaL-31" edge="1">
          <mxGeometry relative="1" as="geometry" />
        </mxCell>
        <mxCell id="VZofq3OoSa0wKa7ugaaL-55" value="1" style="edgeLabel;html=1;align=center;verticalAlign=middle;resizable=0;points=[];" parent="VZofq3OoSa0wKa7ugaaL-54" vertex="1" connectable="0">
          <mxGeometry x="-0.9283" y="-1" relative="1" as="geometry">
            <mxPoint as="offset" />
          </mxGeometry>
        </mxCell>
        <mxCell id="VZofq3OoSa0wKa7ugaaL-56" value="0..*" style="edgeLabel;html=1;align=center;verticalAlign=middle;resizable=0;points=[];" parent="VZofq3OoSa0wKa7ugaaL-54" vertex="1" connectable="0">
          <mxGeometry x="0.899" y="5" relative="1" as="geometry">
            <mxPoint as="offset" />
          </mxGeometry>
        </mxCell>
        <mxCell id="VZofq3OoSa0wKa7ugaaL-16" value="ПЛАТЕЛЬЩИК" style="swimlane;fontStyle=0;childLayout=stackLayout;horizontal=1;startSize=30;horizontalStack=0;resizeParent=1;resizeParentMax=0;resizeLast=0;collapsible=1;marginBottom=0;whiteSpace=wrap;html=1;miterlimit=5;arcSize=15;linejoin=round;absoluteArcSize=0;" parent="1" vertex="1">
          <mxGeometry x="480" y="60" width="160" height="120" as="geometry">
            <mxRectangle x="240" y="260" width="80" height="30" as="alternateBounds" />
          </mxGeometry>
        </mxCell>
        <mxCell id="VZofq3OoSa0wKa7ugaaL-18" value="+Имя: String&lt;div&gt;&lt;br&gt;&lt;/div&gt;" style="text;strokeColor=none;fillColor=none;align=left;verticalAlign=middle;spacingLeft=4;spacingRight=4;overflow=hidden;points=[[0,0.5],[1,0.5]];portConstraint=eastwest;rotatable=0;whiteSpace=wrap;html=1;" parent="VZofq3OoSa0wKa7ugaaL-16" vertex="1">
          <mxGeometry y="30" width="160" height="30" as="geometry" />
        </mxCell>
        <mxCell id="VZofq3OoSa0wKa7ugaaL-20" value="+Номер телефона: String" style="text;strokeColor=none;fillColor=none;align=left;verticalAlign=middle;spacingLeft=4;spacingRight=4;overflow=hidden;points=[[0,0.5],[1,0.5]];portConstraint=eastwest;rotatable=0;whiteSpace=wrap;html=1;" parent="VZofq3OoSa0wKa7ugaaL-16" vertex="1">
          <mxGeometry y="60" width="160" height="30" as="geometry" />
        </mxCell>
        <mxCell id="5TQVmaGm9WwMJkpDohqf-10" value="+Оплатить(): String" style="text;strokeColor=default;fillColor=none;align=left;verticalAlign=middle;spacingLeft=4;spacingRight=4;overflow=hidden;points=[[0,0.5],[1,0.5]];portConstraint=eastwest;rotatable=0;whiteSpace=wrap;html=1;" vertex="1" parent="VZofq3OoSa0wKa7ugaaL-16">
          <mxGeometry y="90" width="160" height="30" as="geometry" />
        </mxCell>
        <mxCell id="VZofq3OoSa0wKa7ugaaL-21" value="ВЕДОМОСТЬ" style="swimlane;fontStyle=0;childLayout=stackLayout;horizontal=1;startSize=30;horizontalStack=0;resizeParent=1;resizeParentMax=0;resizeLast=0;collapsible=1;marginBottom=0;whiteSpace=wrap;html=1;" parent="1" vertex="1">
          <mxGeometry x="120" y="460" width="170" height="120" as="geometry" />
        </mxCell>
        <mxCell id="VZofq3OoSa0wKa7ugaaL-22" value="+ID ведомости: bigint" style="text;strokeColor=none;fillColor=none;align=left;verticalAlign=middle;spacingLeft=4;spacingRight=4;overflow=hidden;points=[[0,0.5],[1,0.5]];portConstraint=eastwest;rotatable=0;whiteSpace=wrap;html=1;flipV=1;direction=north;" parent="VZofq3OoSa0wKa7ugaaL-21" vertex="1">
          <mxGeometry y="30" width="170" height="30" as="geometry" />
        </mxCell>
        <mxCell id="VZofq3OoSa0wKa7ugaaL-23" value="+Дата заполнения: Date" style="text;strokeColor=none;fillColor=none;align=left;verticalAlign=middle;spacingLeft=4;spacingRight=4;overflow=hidden;points=[[0,0.5],[1,0.5]];portConstraint=eastwest;rotatable=0;whiteSpace=wrap;html=1;" parent="VZofq3OoSa0wKa7ugaaL-21" vertex="1">
          <mxGeometry y="60" width="170" height="30" as="geometry" />
        </mxCell>
        <mxCell id="5TQVmaGm9WwMJkpDohqf-18" value="+Отметить посещение(): String" style="text;strokeColor=default;fillColor=none;align=left;verticalAlign=middle;spacingLeft=4;spacingRight=4;overflow=hidden;points=[[0,0.5],[1,0.5]];portConstraint=eastwest;rotatable=0;whiteSpace=wrap;html=1;" vertex="1" parent="VZofq3OoSa0wKa7ugaaL-21">
          <mxGeometry y="90" width="170" height="30" as="geometry" />
        </mxCell>
        <mxCell id="VZofq3OoSa0wKa7ugaaL-65" style="edgeStyle=orthogonalEdgeStyle;rounded=0;orthogonalLoop=1;jettySize=auto;html=1;entryX=0.5;entryY=0;entryDx=0;entryDy=0;" parent="1" source="VZofq3OoSa0wKa7ugaaL-24" target="VZofq3OoSa0wKa7ugaaL-28" edge="1">
          <mxGeometry relative="1" as="geometry" />
        </mxCell>
        <mxCell id="VZofq3OoSa0wKa7ugaaL-66" value="обучает" style="edgeLabel;html=1;align=center;verticalAlign=middle;resizable=0;points=[];" parent="VZofq3OoSa0wKa7ugaaL-65" vertex="1" connectable="0">
          <mxGeometry x="0.0484" y="1" relative="1" as="geometry">
            <mxPoint as="offset" />
          </mxGeometry>
        </mxCell>
        <mxCell id="VZofq3OoSa0wKa7ugaaL-70" value="1" style="edgeLabel;html=1;align=center;verticalAlign=middle;resizable=0;points=[];" parent="VZofq3OoSa0wKa7ugaaL-65" vertex="1" connectable="0">
          <mxGeometry x="-0.5979" y="2" relative="1" as="geometry">
            <mxPoint as="offset" />
          </mxGeometry>
        </mxCell>
        <mxCell id="VZofq3OoSa0wKa7ugaaL-71" value="1" style="edgeLabel;html=1;align=center;verticalAlign=middle;resizable=0;points=[];" parent="VZofq3OoSa0wKa7ugaaL-65" vertex="1" connectable="0">
          <mxGeometry x="0.6021" y="-1" relative="1" as="geometry">
            <mxPoint as="offset" />
          </mxGeometry>
        </mxCell>
        <mxCell id="VZofq3OoSa0wKa7ugaaL-24" value="ГРУППА" style="swimlane;fontStyle=0;childLayout=stackLayout;horizontal=1;startSize=30;horizontalStack=0;resizeParent=1;resizeParentMax=0;resizeLast=0;collapsible=1;marginBottom=0;whiteSpace=wrap;html=1;miterlimit=5;arcSize=15;linejoin=round;absoluteArcSize=0;" parent="1" vertex="1">
          <mxGeometry x="530" y="370" width="200" height="250" as="geometry">
            <mxRectangle x="240" y="260" width="80" height="30" as="alternateBounds" />
          </mxGeometry>
        </mxCell>
        <mxCell id="VZofq3OoSa0wKa7ugaaL-25" value="+ID группы: bigint&lt;div&gt;&lt;br&gt;&lt;/div&gt;" style="text;strokeColor=none;fillColor=none;align=left;verticalAlign=middle;spacingLeft=4;spacingRight=4;overflow=hidden;points=[[0,0.5],[1,0.5]];portConstraint=eastwest;rotatable=0;whiteSpace=wrap;html=1;" parent="VZofq3OoSa0wKa7ugaaL-24" vertex="1">
          <mxGeometry y="30" width="200" height="30" as="geometry" />
        </mxCell>
        <mxCell id="VZofq3OoSa0wKa7ugaaL-26" value="+Количество человек: integer&lt;div&gt;&lt;br&gt;&lt;/div&gt;" style="text;strokeColor=none;fillColor=none;align=left;verticalAlign=middle;spacingLeft=4;spacingRight=4;overflow=hidden;points=[[0,0.5],[1,0.5]];portConstraint=eastwest;rotatable=0;whiteSpace=wrap;html=1;" parent="VZofq3OoSa0wKa7ugaaL-24" vertex="1">
          <mxGeometry y="60" width="200" height="30" as="geometry" />
        </mxCell>
        <mxCell id="VZofq3OoSa0wKa7ugaaL-27" value="+Уровень сложности: String" style="text;strokeColor=none;fillColor=none;align=left;verticalAlign=middle;spacingLeft=4;spacingRight=4;overflow=hidden;points=[[0,0.5],[1,0.5]];portConstraint=eastwest;rotatable=0;whiteSpace=wrap;html=1;" parent="VZofq3OoSa0wKa7ugaaL-24" vertex="1">
          <mxGeometry y="90" width="200" height="40" as="geometry" />
        </mxCell>
        <mxCell id="5TQVmaGm9WwMJkpDohqf-19" value="+Добавить ученика: String()" style="text;strokeColor=default;fillColor=none;align=left;verticalAlign=middle;spacingLeft=4;spacingRight=4;overflow=hidden;points=[[0,0.5],[1,0.5]];portConstraint=eastwest;rotatable=0;whiteSpace=wrap;html=1;" vertex="1" parent="VZofq3OoSa0wKa7ugaaL-24">
          <mxGeometry y="130" width="200" height="40" as="geometry" />
        </mxCell>
        <mxCell id="5TQVmaGm9WwMJkpDohqf-25" value="+Удалить ученика: String()" style="text;strokeColor=default;fillColor=none;align=left;verticalAlign=middle;spacingLeft=4;spacingRight=4;overflow=hidden;points=[[0,0.5],[1,0.5]];portConstraint=eastwest;rotatable=0;whiteSpace=wrap;html=1;" vertex="1" parent="VZofq3OoSa0wKa7ugaaL-24">
          <mxGeometry y="170" width="200" height="40" as="geometry" />
        </mxCell>
        <mxCell id="5TQVmaGm9WwMJkpDohqf-26" value="+Проверить свободные места: Boolean" style="text;strokeColor=default;fillColor=none;align=left;verticalAlign=middle;spacingLeft=4;spacingRight=4;overflow=hidden;points=[[0,0.5],[1,0.5]];portConstraint=eastwest;rotatable=0;whiteSpace=wrap;html=1;" vertex="1" parent="VZofq3OoSa0wKa7ugaaL-24">
          <mxGeometry y="210" width="200" height="40" as="geometry" />
        </mxCell>
        <mxCell id="VZofq3OoSa0wKa7ugaaL-28" value="ТАНЦЕВАЛЬНОЕ НАПРАВЛЕНИЕ" style="swimlane;fontStyle=0;childLayout=stackLayout;horizontal=1;startSize=30;horizontalStack=0;resizeParent=1;resizeParentMax=0;resizeLast=0;collapsible=1;marginBottom=0;whiteSpace=wrap;html=1;" parent="1" vertex="1">
          <mxGeometry x="420" y="770" width="160" height="100" as="geometry" />
        </mxCell>
        <mxCell id="VZofq3OoSa0wKa7ugaaL-29" value="+ID направления: bigint" style="text;strokeColor=none;fillColor=none;align=left;verticalAlign=middle;spacingLeft=4;spacingRight=4;overflow=hidden;points=[[0,0.5],[1,0.5]];portConstraint=eastwest;rotatable=0;whiteSpace=wrap;html=1;flipV=1;direction=north;" parent="VZofq3OoSa0wKa7ugaaL-28" vertex="1">
          <mxGeometry y="30" width="160" height="30" as="geometry" />
        </mxCell>
        <mxCell id="VZofq3OoSa0wKa7ugaaL-30" value="+Стиль: String" style="text;strokeColor=none;fillColor=none;align=left;verticalAlign=middle;spacingLeft=4;spacingRight=4;overflow=hidden;points=[[0,0.5],[1,0.5]];portConstraint=eastwest;rotatable=0;whiteSpace=wrap;html=1;" parent="VZofq3OoSa0wKa7ugaaL-28" vertex="1">
          <mxGeometry y="60" width="160" height="40" as="geometry" />
        </mxCell>
        <mxCell id="VZofq3OoSa0wKa7ugaaL-31" value="ЗАНЯТИЕ" style="swimlane;fontStyle=0;childLayout=stackLayout;horizontal=1;startSize=30;horizontalStack=0;resizeParent=1;resizeParentMax=0;resizeLast=0;collapsible=1;marginBottom=0;whiteSpace=wrap;html=1;miterlimit=5;arcSize=15;linejoin=round;absoluteArcSize=0;" parent="1" vertex="1">
          <mxGeometry x="770" y="590" width="170" height="330" as="geometry">
            <mxRectangle x="240" y="260" width="80" height="30" as="alternateBounds" />
          </mxGeometry>
        </mxCell>
        <mxCell id="VZofq3OoSa0wKa7ugaaL-32" value="+ID занятия: bigint&lt;div&gt;&lt;br&gt;&lt;/div&gt;" style="text;strokeColor=none;fillColor=none;align=left;verticalAlign=middle;spacingLeft=4;spacingRight=4;overflow=hidden;points=[[0,0.5],[1,0.5]];portConstraint=eastwest;rotatable=0;whiteSpace=wrap;html=1;" parent="VZofq3OoSa0wKa7ugaaL-31" vertex="1">
          <mxGeometry y="30" width="170" height="30" as="geometry" />
        </mxCell>
        <mxCell id="VZofq3OoSa0wKa7ugaaL-33" value="&lt;div&gt;+Дата и время: DateTime&lt;/div&gt;" style="text;strokeColor=none;fillColor=none;align=left;verticalAlign=middle;spacingLeft=4;spacingRight=4;overflow=hidden;points=[[0,0.5],[1,0.5]];portConstraint=eastwest;rotatable=0;whiteSpace=wrap;html=1;" parent="VZofq3OoSa0wKa7ugaaL-31" vertex="1">
          <mxGeometry y="60" width="170" height="30" as="geometry" />
        </mxCell>
        <mxCell id="VZofq3OoSa0wKa7ugaaL-34" value="+Формат занятия: String" style="text;strokeColor=none;fillColor=none;align=left;verticalAlign=middle;spacingLeft=4;spacingRight=4;overflow=hidden;points=[[0,0.5],[1,0.5]];portConstraint=eastwest;rotatable=0;whiteSpace=wrap;html=1;" parent="VZofq3OoSa0wKa7ugaaL-31" vertex="1">
          <mxGeometry y="90" width="170" height="40" as="geometry" />
        </mxCell>
        <mxCell id="VZofq3OoSa0wKa7ugaaL-35" value="+Стоимость: decimal" style="text;strokeColor=none;fillColor=none;align=left;verticalAlign=middle;spacingLeft=4;spacingRight=4;overflow=hidden;points=[[0,0.5],[1,0.5]];portConstraint=eastwest;rotatable=0;whiteSpace=wrap;html=1;" parent="VZofq3OoSa0wKa7ugaaL-31" vertex="1">
          <mxGeometry y="130" width="170" height="40" as="geometry" />
        </mxCell>
        <mxCell id="VZofq3OoSa0wKa7ugaaL-36" value="+Место: String" style="text;strokeColor=none;fillColor=none;align=left;verticalAlign=middle;spacingLeft=4;spacingRight=4;overflow=hidden;points=[[0,0.5],[1,0.5]];portConstraint=eastwest;rotatable=0;whiteSpace=wrap;html=1;" parent="VZofq3OoSa0wKa7ugaaL-31" vertex="1">
          <mxGeometry y="170" width="170" height="40" as="geometry" />
        </mxCell>
        <mxCell id="VZofq3OoSa0wKa7ugaaL-37" value="+Способ оплаты: String" style="text;strokeColor=none;fillColor=none;align=left;verticalAlign=middle;spacingLeft=4;spacingRight=4;overflow=hidden;points=[[0,0.5],[1,0.5]];portConstraint=eastwest;rotatable=0;whiteSpace=wrap;html=1;" parent="VZofq3OoSa0wKa7ugaaL-31" vertex="1">
          <mxGeometry y="210" width="170" height="40" as="geometry" />
        </mxCell>
        <mxCell id="5TQVmaGm9WwMJkpDohqf-27" value="+Начать: String()" style="text;strokeColor=default;fillColor=none;align=left;verticalAlign=middle;spacingLeft=4;spacingRight=4;overflow=hidden;points=[[0,0.5],[1,0.5]];portConstraint=eastwest;rotatable=0;whiteSpace=wrap;html=1;" vertex="1" parent="VZofq3OoSa0wKa7ugaaL-31">
          <mxGeometry y="250" width="170" height="40" as="geometry" />
        </mxCell>
        <mxCell id="5TQVmaGm9WwMJkpDohqf-28" value="+Завершить: String()" style="text;strokeColor=default;fillColor=none;align=left;verticalAlign=middle;spacingLeft=4;spacingRight=4;overflow=hidden;points=[[0,0.5],[1,0.5]];portConstraint=eastwest;rotatable=0;whiteSpace=wrap;html=1;" vertex="1" parent="VZofq3OoSa0wKa7ugaaL-31">
          <mxGeometry y="290" width="170" height="40" as="geometry" />
        </mxCell>
        <mxCell id="VZofq3OoSa0wKa7ugaaL-38" value="ХОРЕОГРАФ" style="swimlane;fontStyle=0;childLayout=stackLayout;horizontal=1;startSize=30;horizontalStack=0;resizeParent=1;resizeParentMax=0;resizeLast=0;collapsible=1;marginBottom=0;whiteSpace=wrap;html=1;miterlimit=5;arcSize=15;linejoin=round;absoluteArcSize=0;" parent="1" vertex="1">
          <mxGeometry x="930" y="130" width="130" height="330" as="geometry">
            <mxRectangle x="240" y="260" width="80" height="30" as="alternateBounds" />
          </mxGeometry>
        </mxCell>
        <mxCell id="VZofq3OoSa0wKa7ugaaL-39" value="+ID хореографа: bigint&lt;div&gt;&lt;br&gt;&lt;/div&gt;" style="text;strokeColor=none;fillColor=none;align=left;verticalAlign=middle;spacingLeft=4;spacingRight=4;overflow=hidden;points=[[0,0.5],[1,0.5]];portConstraint=eastwest;rotatable=0;whiteSpace=wrap;html=1;" parent="VZofq3OoSa0wKa7ugaaL-38" vertex="1">
          <mxGeometry y="30" width="130" height="30" as="geometry" />
        </mxCell>
        <mxCell id="VZofq3OoSa0wKa7ugaaL-40" value="&lt;div&gt;+Имя: String&lt;/div&gt;" style="text;strokeColor=none;fillColor=none;align=left;verticalAlign=middle;spacingLeft=4;spacingRight=4;overflow=hidden;points=[[0,0.5],[1,0.5]];portConstraint=eastwest;rotatable=0;whiteSpace=wrap;html=1;" parent="VZofq3OoSa0wKa7ugaaL-38" vertex="1">
          <mxGeometry y="60" width="130" height="30" as="geometry" />
        </mxCell>
        <mxCell id="VZofq3OoSa0wKa7ugaaL-41" value="+Уровень образования: String" style="text;strokeColor=none;fillColor=none;align=left;verticalAlign=middle;spacingLeft=4;spacingRight=4;overflow=hidden;points=[[0,0.5],[1,0.5]];portConstraint=eastwest;rotatable=0;whiteSpace=wrap;html=1;" parent="VZofq3OoSa0wKa7ugaaL-38" vertex="1">
          <mxGeometry y="90" width="130" height="40" as="geometry" />
        </mxCell>
        <mxCell id="VZofq3OoSa0wKa7ugaaL-42" value="+Номер телефона: String" style="text;strokeColor=none;fillColor=none;align=left;verticalAlign=middle;spacingLeft=4;spacingRight=4;overflow=hidden;points=[[0,0.5],[1,0.5]];portConstraint=eastwest;rotatable=0;whiteSpace=wrap;html=1;" parent="VZofq3OoSa0wKa7ugaaL-38" vertex="1">
          <mxGeometry y="130" width="130" height="40" as="geometry" />
        </mxCell>
        <mxCell id="VZofq3OoSa0wKa7ugaaL-43" value="+Опыт работы: integer" style="text;strokeColor=none;fillColor=none;align=left;verticalAlign=middle;spacingLeft=4;spacingRight=4;overflow=hidden;points=[[0,0.5],[1,0.5]];portConstraint=eastwest;rotatable=0;whiteSpace=wrap;html=1;" parent="VZofq3OoSa0wKa7ugaaL-38" vertex="1">
          <mxGeometry y="170" width="130" height="40" as="geometry" />
        </mxCell>
        <mxCell id="5TQVmaGm9WwMJkpDohqf-13" value="+Создать расписание(): String" style="text;strokeColor=default;fillColor=none;align=left;verticalAlign=middle;spacingLeft=4;spacingRight=4;overflow=hidden;points=[[0,0.5],[1,0.5]];portConstraint=eastwest;rotatable=0;whiteSpace=wrap;html=1;" vertex="1" parent="VZofq3OoSa0wKa7ugaaL-38">
          <mxGeometry y="210" width="130" height="40" as="geometry" />
        </mxCell>
        <mxCell id="5TQVmaGm9WwMJkpDohqf-14" value="+Создать ведомость(): String" style="text;strokeColor=default;fillColor=none;align=left;verticalAlign=middle;spacingLeft=4;spacingRight=4;overflow=hidden;points=[[0,0.5],[1,0.5]];portConstraint=eastwest;rotatable=0;whiteSpace=wrap;html=1;" vertex="1" parent="VZofq3OoSa0wKa7ugaaL-38">
          <mxGeometry y="250" width="130" height="40" as="geometry" />
        </mxCell>
        <mxCell id="5TQVmaGm9WwMJkpDohqf-15" value="+Провести занятие(): String" style="text;strokeColor=default;fillColor=none;align=left;verticalAlign=middle;spacingLeft=4;spacingRight=4;overflow=hidden;points=[[0,0.5],[1,0.5]];portConstraint=eastwest;rotatable=0;whiteSpace=wrap;html=1;" vertex="1" parent="VZofq3OoSa0wKa7ugaaL-38">
          <mxGeometry y="290" width="130" height="40" as="geometry" />
        </mxCell>
        <mxCell id="VZofq3OoSa0wKa7ugaaL-68" style="edgeStyle=orthogonalEdgeStyle;rounded=0;orthogonalLoop=1;jettySize=auto;html=1;entryX=0.042;entryY=0.003;entryDx=0;entryDy=0;entryPerimeter=0;" parent="1" source="VZofq3OoSa0wKa7ugaaL-27" target="VZofq3OoSa0wKa7ugaaL-31" edge="1">
          <mxGeometry relative="1" as="geometry" />
        </mxCell>
        <mxCell id="VZofq3OoSa0wKa7ugaaL-69" value="включает" style="edgeLabel;html=1;align=center;verticalAlign=middle;resizable=0;points=[];" parent="VZofq3OoSa0wKa7ugaaL-68" vertex="1" connectable="0">
          <mxGeometry x="-0.0442" y="-2" relative="1" as="geometry">
            <mxPoint as="offset" />
          </mxGeometry>
        </mxCell>
        <mxCell id="VZofq3OoSa0wKa7ugaaL-72" value="1" style="edgeLabel;html=1;align=center;verticalAlign=middle;resizable=0;points=[];" parent="VZofq3OoSa0wKa7ugaaL-68" vertex="1" connectable="0">
          <mxGeometry x="-0.8169" y="2" relative="1" as="geometry">
            <mxPoint as="offset" />
          </mxGeometry>
        </mxCell>
        <mxCell id="VZofq3OoSa0wKa7ugaaL-73" value="1..*" style="edgeLabel;html=1;align=center;verticalAlign=middle;resizable=0;points=[];" parent="VZofq3OoSa0wKa7ugaaL-68" vertex="1" connectable="0">
          <mxGeometry x="0.7114" y="-1" relative="1" as="geometry">
            <mxPoint as="offset" />
          </mxGeometry>
        </mxCell>
        <mxCell id="VZofq3OoSa0wKa7ugaaL-74" style="edgeStyle=orthogonalEdgeStyle;rounded=0;orthogonalLoop=1;jettySize=auto;html=1;entryX=0.94;entryY=0.017;entryDx=0;entryDy=0;entryPerimeter=0;exitX=0.515;exitY=1.049;exitDx=0;exitDy=0;exitPerimeter=0;" parent="1" edge="1">
          <mxGeometry relative="1" as="geometry">
            <mxPoint x="940" y="672.2900000000002" as="targetPoint" />
            <Array as="points">
              <mxPoint x="1000.2" y="490.04" />
              <mxPoint x="1000.2" y="568.04" />
              <mxPoint x="952.2" y="568.04" />
              <mxPoint x="952.2" y="672.04" />
            </Array>
            <mxPoint x="1007.1500000000001" y="459.99999999999994" as="sourcePoint" />
          </mxGeometry>
        </mxCell>
        <mxCell id="VZofq3OoSa0wKa7ugaaL-75" value="проводит" style="edgeLabel;html=1;align=center;verticalAlign=middle;resizable=0;points=[];" parent="VZofq3OoSa0wKa7ugaaL-74" vertex="1" connectable="0">
          <mxGeometry x="-0.2762" y="4" relative="1" as="geometry">
            <mxPoint as="offset" />
          </mxGeometry>
        </mxCell>
        <mxCell id="VZofq3OoSa0wKa7ugaaL-76" value="1" style="edgeLabel;html=1;align=center;verticalAlign=middle;resizable=0;points=[];" parent="VZofq3OoSa0wKa7ugaaL-74" vertex="1" connectable="0">
          <mxGeometry x="-0.8841" y="3" relative="1" as="geometry">
            <mxPoint y="-1" as="offset" />
          </mxGeometry>
        </mxCell>
        <mxCell id="VZofq3OoSa0wKa7ugaaL-77" value="0..*" style="edgeLabel;html=1;align=center;verticalAlign=middle;resizable=0;points=[];" parent="VZofq3OoSa0wKa7ugaaL-74" vertex="1" connectable="0">
          <mxGeometry x="0.759" y="1" relative="1" as="geometry">
            <mxPoint as="offset" />
          </mxGeometry>
        </mxCell>
        <mxCell id="VZofq3OoSa0wKa7ugaaL-78" style="edgeStyle=orthogonalEdgeStyle;rounded=0;orthogonalLoop=1;jettySize=auto;html=1;entryX=1.009;entryY=0.147;entryDx=0;entryDy=0;entryPerimeter=0;" parent="1" source="VZofq3OoSa0wKa7ugaaL-38" target="VZofq3OoSa0wKa7ugaaL-24" edge="1">
          <mxGeometry relative="1" as="geometry" />
        </mxCell>
        <mxCell id="VZofq3OoSa0wKa7ugaaL-79" value="преподает в" style="edgeLabel;html=1;align=center;verticalAlign=middle;resizable=0;points=[];" parent="VZofq3OoSa0wKa7ugaaL-78" vertex="1" connectable="0">
          <mxGeometry x="0.0188" y="-1" relative="1" as="geometry">
            <mxPoint as="offset" />
          </mxGeometry>
        </mxCell>
        <mxCell id="VZofq3OoSa0wKa7ugaaL-80" value="1" style="edgeLabel;html=1;align=center;verticalAlign=middle;resizable=0;points=[];" parent="VZofq3OoSa0wKa7ugaaL-78" vertex="1" connectable="0">
          <mxGeometry x="-0.8363" y="1" relative="1" as="geometry">
            <mxPoint x="1" as="offset" />
          </mxGeometry>
        </mxCell>
        <mxCell id="VZofq3OoSa0wKa7ugaaL-81" value="1..*" style="edgeLabel;html=1;align=center;verticalAlign=middle;resizable=0;points=[];" parent="VZofq3OoSa0wKa7ugaaL-78" vertex="1" connectable="0">
          <mxGeometry x="0.8236" y="1" relative="1" as="geometry">
            <mxPoint x="1" as="offset" />
          </mxGeometry>
        </mxCell>
      </root>
    </mxGraphModel>
  </diagram>
</mxfile>
